<!DOCTYPE svg PUBLIC "-//W3C//DTD SVG 1.1//EN" "http://www.w3.org/Graphics/SVG/1.1/DTD/svg11.dtd">
<!-- Uploaded to: SVG Repo, www.svgrepo.com, Transformed by: SVG Repo Mixer Tools -->
<svg width="800px" height="800px" viewBox="0 0 24.00 24.00" fill="none" xmlns="http://www.w3.org/2000/svg" transform="matrix(1, 0, 0, 1, 0, 0)" stroke="#ffffff" stroke-width="1.032">
<g id="SVGRepo_bgCarrier" stroke-width="0"/>
<g id="SVGRepo_tracerCarrier" stroke-linecap="round" stroke-linejoin="round" stroke="#c0c0c0" stroke-width="1.488"> <path opacity="0.4" d="M15.4807 13.2302L11.6907 8.18018H6.08072C5.12072 8.18018 4.64073 9.34018 5.32073 10.0202L10.5007 15.2002C11.3307 16.0302 12.6807 16.0302 13.5107 15.2002L15.4807 13.2302Z" fill="#c0c0c0"/> <path d="M17.9195 8.18018H11.6895L15.4795 13.2302L18.6895 10.0202C19.3595 9.34018 18.8795 8.18018 17.9195 8.18018Z" fill="#c0c0c0"/> </g>
<g id="SVGRepo_iconCarrier"> <path opacity="0.4" d="M15.4807 13.2302L11.6907 8.18018H6.08072C5.12072 8.18018 4.64073 9.34018 5.32073 10.0202L10.5007 15.2002C11.3307 16.0302 12.6807 16.0302 13.5107 15.2002L15.4807 13.2302Z" fill="#c0c0c0"/> <path d="M17.9195 8.18018H11.6895L15.4795 13.2302L18.6895 10.0202C19.3595 9.34018 18.8795 8.18018 17.9195 8.18018Z" fill="#c0c0c0"/> </g>
</svg>